<svg class="fa-personal-heart" xmlns="http://www.w3.org/2000/svg" width="23" height="21" viewBox="0 0 23 21"><path stroke-width="2" d="M14.2032834,0.000936228569 C17.9488199,0.000936228569 20.9944793,3.05761731 20.9999902,6.81784939 C21.007338,12.0880525 16.8916565,15.8767573 11.686665,18.3107131 L11.4809269,18.4053159 C11.1557871,18.543087 10.8618755,18.6055432 10.5183662,18.6055432 C10.2152698,18.6055432 9.91768431,18.5504348 9.58152287,18.4218484 C4.22682013,16.0182023 0.00643263948,12.2230682 3.32229851e-06,6.84632208 C-0.00367057323,3.07966068 3.04015187,0.012876389 6.79303616,0.0101209674 C8.10526384,0.0103698742 9.38897315,0.393056961 10.4871381,1.11137115 C11.5892791,0.383559644 12.8816019,-0.00301899423 14.202365,1.77546866e-05 L14.2032834,0.000936228569 Z" transform="translate(1 1)"></path></svg>