<svg xmlns="http://www.w3.org/2000/svg" width="32" height="32" fill="none" viewBox="0 0 32 32">
  <rect width="32" height="32" fill="#fff"/>
  <path fill="#fff" d="M0 0h32v32H0z"/>
  <g fill="#A4B8C2" clip-path="url(#a)">
    <path d="M8.5 15a1.5 1.5 0 1 0 0-3 1.5 1.5 0 0 0 0 3ZM25 13.5a1.5 1.5 0 1 1-3 0 1.5 1.5 0 0 1 3 0ZM14 15a1 1 0 1 0 0 2h4a1 1 0 1 0 0-2h-4Z"/>
    <path fill-rule="evenodd" d="M16 0C7.163 0 0 7.163 0 16s7.163 16 16 16 16-7.163 16-16S24.837 0 16 0ZM2 16C2 8.268 8.268 2 16 2s14 6.268 14 14-6.268 14-14 14S2 23.732 2 16Z" clip-rule="evenodd"/>
  </g>
  <defs>
    <clipPath id="a">
      <rect width="32" height="32" fill="#fff"/>
    </clipPath>
  </defs>
</svg>